<?xml version="1.0" standalone="no"?>
<!DOCTYPE svg PUBLIC "-//W3C//DTD SVG 20010904//EN"
 "http://www.w3.org/TR/2001/REC-SVG-20010904/DTD/svg10.dtd">
<svg version="1.0" xmlns="http://www.w3.org/2000/svg"
 width="512.000000pt" height="512.000000pt" viewBox="0 0 512.000000 512.000000"
 preserveAspectRatio="xMidYMid meet">

<g transform="translate(0.000000,512.000000) scale(0.100000,-0.100000)"
fill="#000000" stroke="none">
<path d="M3189 5105 c-118 -16 -275 -57 -393 -102 -48 -18 -93 -36 -98 -39 -5
-3 124 -137 286 -296 163 -160 301 -298 306 -308 7 -13 -5 -44 -45 -124 -227
-448 -634 -856 -1083 -1085 -108 -55 -239 -111 -259 -111 -4 0 -123 116 -265
257 -169 168 -258 265 -258 278 0 29 90 230 146 328 227 394 534 705 934 946
l85 51 -85 -6 c-314 -19 -563 -74 -825 -180 -316 -129 -584 -312 -830 -565
-106 -110 -275 -317 -275 -337 0 -17 68 -72 113 -92 57 -25 60 -46 10 -66 -63
-26 -102 -62 -133 -125 -17 -32 -37 -59 -45 -59 -8 0 -24 22 -36 50 -36 83
-41 82 -94 -32 -388 -834 -279 -1811 283 -2538 90 -116 277 -306 393 -399 670
-541 1557 -691 2369 -401 59 21 119 44 135 52 26 14 21 15 -86 21 -293 15
-595 148 -815 359 -186 179 -306 388 -371 645 -26 100 -28 122 -27 308 0 192
2 205 32 320 61 231 201 468 369 625 109 102 199 163 338 231 373 180 792 174
1165 -17 391 -200 650 -574 704 -1017 l12 -102 36 110 c48 145 64 210 88 348
119 695 -66 1407 -507 1952 -45 55 -106 124 -137 154 l-55 54 -44 -44 c-27
-26 -49 -60 -56 -84 -15 -51 -38 -197 -48 -300 -7 -71 -10 -80 -28 -80 -23 0
-27 19 -44 201 -28 284 -84 333 -416 365 -75 7 -125 16 -135 25 -26 25 5 37
122 46 127 9 259 33 297 53 14 7 36 24 49 38 l23 24 -98 64 c-104 67 -324 183
-408 214 -27 10 -53 21 -57 24 -4 3 -1 48 7 99 8 51 15 129 16 174 3 69 0 82
-16 94 -23 17 -115 17 -246 -1z m268 -1497 c18 -18 33 -36 33 -42 0 -13 -61
-76 -74 -76 -13 0 -76 61 -76 74 0 13 61 76 74 76 6 0 25 -14 43 -32z m1022
-453 c11 -20 36 -45 56 -56 19 -12 35 -27 35 -34 0 -7 -16 -22 -35 -34 -20
-11 -45 -36 -56 -56 -12 -19 -27 -35 -34 -35 -7 0 -22 16 -34 35 -11 20 -36
45 -56 56 -19 12 -35 27 -35 34 0 7 16 22 35 34 20 11 45 36 56 56 12 19 27
35 34 35 7 0 22 -16 34 -35z m-3159 6 c72 -28 122 -72 161 -143 31 -57 34 -71
34 -143 0 -67 -4 -89 -28 -137 -16 -32 -44 -71 -64 -87 -39 -32 -436 -261
-453 -261 -16 0 -12 20 16 67 14 24 24 48 22 53 -2 6 -80 -40 -173 -101 -94
-61 -176 -114 -182 -116 -29 -11 -7 32 102 200 63 98 115 182 115 187 0 5 -31
-8 -69 -28 -38 -20 -72 -34 -76 -30 -7 7 154 300 230 419 62 96 138 138 252
139 38 0 82 -7 113 -19z m327 -1083 c18 -18 33 -36 33 -42 0 -13 -61 -76 -74
-76 -13 0 -76 61 -76 74 0 13 61 76 74 76 6 0 25 -14 43 -32z m-538 -523 c11
-20 36 -45 56 -56 19 -12 35 -27 35 -34 0 -7 -16 -22 -35 -34 -20 -11 -45 -36
-56 -56 -12 -19 -27 -35 -34 -35 -7 0 -22 16 -34 35 -11 20 -36 45 -56 56 -19
12 -35 27 -35 34 0 7 16 22 35 34 20 11 45 36 56 56 12 19 27 35 34 35 7 0 22
-16 34 -35z m738 -757 c18 -18 33 -36 33 -42 0 -13 -61 -76 -74 -76 -13 0 -76
61 -76 74 0 13 61 76 74 76 6 0 25 -14 43 -32z"/>
<path d="M2515 4551 c-86 -22 -167 -86 -206 -163 -16 -31 -24 -67 -27 -126 -4
-77 -2 -87 27 -147 54 -109 151 -169 276 -169 166 -1 295 121 303 289 7 128
-57 239 -169 293 -50 24 -155 36 -204 23z"/>
</g>
</svg>
